<mxfile host="app.diagrams.net" modified="2023-06-01T03:51:13.158Z" agent="Mozilla/5.0 (Windows NT 10.0; Win64; x64) AppleWebKit/537.36 (KHTML, like Gecko) Chrome/113.0.0.0 Safari/537.36" etag="SDt9gAFjYYi-O8mYiAeH" version="21.3.6" type="google">
  <diagram name="PÃ¡gina-1" id="CmqMdGr1JmN8FQzrXnpy">
    <mxGraphModel grid="1" page="1" gridSize="10" guides="1" tooltips="1" connect="1" arrows="1" fold="1" pageScale="1" pageWidth="827" pageHeight="1169" math="0" shadow="0">
      <root>
        <mxCell id="0" />
        <mxCell id="1" parent="0" />
        <mxCell id="mqlqFMtZRtSdyx6AV1RD-1" value="" style="shape=folder;fontStyle=1;spacingTop=10;tabWidth=40;tabHeight=14;tabPosition=left;html=1;whiteSpace=wrap;fillColor=none;" vertex="1" parent="1">
          <mxGeometry x="30" y="20" width="1220" height="930" as="geometry" />
        </mxCell>
        <mxCell id="mqlqFMtZRtSdyx6AV1RD-2" value="Co" style="text;html=1;strokeColor=none;fillColor=none;align=center;verticalAlign=middle;whiteSpace=wrap;rounded=0;" vertex="1" parent="1">
          <mxGeometry x="30" y="10" width="60" height="30" as="geometry" />
        </mxCell>
        <mxCell id="mqlqFMtZRtSdyx6AV1RD-6" value="" style="shape=folder;fontStyle=1;spacingTop=10;tabWidth=40;tabHeight=14;tabPosition=left;html=1;whiteSpace=wrap;fillColor=none;" vertex="1" parent="1">
          <mxGeometry x="50" y="50" width="1170" height="880" as="geometry" />
        </mxCell>
        <mxCell id="mqlqFMtZRtSdyx6AV1RD-7" value="Edu" style="text;html=1;strokeColor=none;fillColor=none;align=center;verticalAlign=middle;whiteSpace=wrap;rounded=0;" vertex="1" parent="1">
          <mxGeometry x="50" y="40" width="60" height="30" as="geometry" />
        </mxCell>
        <mxCell id="mqlqFMtZRtSdyx6AV1RD-8" value="" style="shape=folder;fontStyle=1;spacingTop=10;tabWidth=40;tabHeight=14;tabPosition=left;html=1;whiteSpace=wrap;fillColor=none;" vertex="1" parent="1">
          <mxGeometry x="70" y="80" width="1120" height="820" as="geometry" />
        </mxCell>
        <mxCell id="mqlqFMtZRtSdyx6AV1RD-9" value="Uco" style="text;align=center;fontStyle=1;verticalAlign=middle;spacingLeft=3;spacingRight=3;strokeColor=none;rotatable=0;points=[[0,0.5],[1,0.5]];portConstraint=eastwest;html=1;" vertex="1" parent="1">
          <mxGeometry x="60" y="80" width="60" height="10" as="geometry" />
        </mxCell>
        <mxCell id="mqlqFMtZRtSdyx6AV1RD-11" value="" style="shape=folder;fontStyle=1;spacingTop=10;tabWidth=40;tabHeight=14;tabPosition=left;html=1;whiteSpace=wrap;fillColor=none;" vertex="1" parent="1">
          <mxGeometry x="90" y="110" width="1070" height="760" as="geometry" />
        </mxCell>
        <mxCell id="mqlqFMtZRtSdyx6AV1RD-12" value="Apipet" style="text;align=center;fontStyle=1;verticalAlign=middle;spacingLeft=3;spacingRight=3;strokeColor=none;rotatable=0;points=[[0,0.5],[1,0.5]];portConstraint=eastwest;html=1;" vertex="1" parent="1">
          <mxGeometry x="90" y="110" width="70" height="10" as="geometry" />
        </mxCell>
        <mxCell id="mqlqFMtZRtSdyx6AV1RD-73" style="edgeStyle=orthogonalEdgeStyle;rounded=0;orthogonalLoop=1;jettySize=auto;html=1;exitX=0;exitY=0;exitDx=160;exitDy=37;exitPerimeter=0;entryX=0.5;entryY=1;entryDx=0;entryDy=0;entryPerimeter=0;" edge="1" parent="1" source="mqlqFMtZRtSdyx6AV1RD-13" target="mqlqFMtZRtSdyx6AV1RD-44">
          <mxGeometry relative="1" as="geometry">
            <Array as="points">
              <mxPoint x="1140" y="177" />
              <mxPoint x="1140" y="810" />
              <mxPoint x="785" y="810" />
            </Array>
          </mxGeometry>
        </mxCell>
        <mxCell id="mqlqFMtZRtSdyx6AV1RD-13" value="" style="shape=folder;fontStyle=1;spacingTop=10;tabWidth=40;tabHeight=14;tabPosition=left;html=1;whiteSpace=wrap;fillColor=none;" vertex="1" parent="1">
          <mxGeometry x="590" y="140" width="160" height="60" as="geometry" />
        </mxCell>
        <mxCell id="mqlqFMtZRtSdyx6AV1RD-56" style="edgeStyle=orthogonalEdgeStyle;rounded=0;orthogonalLoop=1;jettySize=auto;html=1;" edge="1" parent="1" source="mqlqFMtZRtSdyx6AV1RD-14" target="mqlqFMtZRtSdyx6AV1RD-42">
          <mxGeometry relative="1" as="geometry">
            <Array as="points">
              <mxPoint x="170" y="145" />
              <mxPoint x="170" y="735" />
            </Array>
          </mxGeometry>
        </mxCell>
        <mxCell id="mqlqFMtZRtSdyx6AV1RD-14" value="dto" style="text;align=center;fontStyle=1;verticalAlign=middle;spacingLeft=3;spacingRight=3;strokeColor=none;rotatable=0;points=[[0,0.5],[1,0.5]];portConstraint=eastwest;html=1;" vertex="1" parent="1">
          <mxGeometry x="590" y="140" width="50" height="10" as="geometry" />
        </mxCell>
        <mxCell id="mqlqFMtZRtSdyx6AV1RD-15" value="" style="shape=folder;fontStyle=1;spacingTop=10;tabWidth=40;tabHeight=14;tabPosition=left;html=1;whiteSpace=wrap;fillColor=none;" vertex="1" parent="1">
          <mxGeometry x="250" y="183" width="270" height="210" as="geometry" />
        </mxCell>
        <mxCell id="mqlqFMtZRtSdyx6AV1RD-46" style="edgeStyle=orthogonalEdgeStyle;rounded=0;orthogonalLoop=1;jettySize=auto;html=1;exitX=1;exitY=0.5;exitDx=0;exitDy=0;" edge="1" parent="1" source="mqlqFMtZRtSdyx6AV1RD-16">
          <mxGeometry relative="1" as="geometry">
            <mxPoint x="590" y="170" as="targetPoint" />
            <Array as="points">
              <mxPoint x="300" y="188" />
              <mxPoint x="300" y="170" />
              <mxPoint x="590" y="170" />
            </Array>
          </mxGeometry>
        </mxCell>
        <mxCell id="mqlqFMtZRtSdyx6AV1RD-16" value="API" style="text;align=center;fontStyle=1;verticalAlign=middle;spacingLeft=3;spacingRight=3;strokeColor=none;rotatable=0;points=[[0,0.5],[1,0.5]];portConstraint=eastwest;html=1;" vertex="1" parent="1">
          <mxGeometry x="240" y="183" width="50" height="10" as="geometry" />
        </mxCell>
        <mxCell id="mqlqFMtZRtSdyx6AV1RD-17" value="" style="shape=folder;fontStyle=1;spacingTop=10;tabWidth=40;tabHeight=14;tabPosition=left;html=1;whiteSpace=wrap;fillColor=none;" vertex="1" parent="1">
          <mxGeometry x="420" y="180" width="70" height="50" as="geometry" />
        </mxCell>
        <mxCell id="mqlqFMtZRtSdyx6AV1RD-18" value="init" style="text;align=center;fontStyle=1;verticalAlign=middle;spacingLeft=3;spacingRight=3;strokeColor=none;rotatable=0;points=[[0,0.5],[1,0.5]];portConstraint=eastwest;html=1;" vertex="1" parent="1">
          <mxGeometry x="400" y="180" width="80" height="10" as="geometry" />
        </mxCell>
        <mxCell id="mqlqFMtZRtSdyx6AV1RD-19" value="" style="shape=folder;fontStyle=1;spacingTop=10;tabWidth=70;tabHeight=20;tabPosition=left;html=1;whiteSpace=wrap;fillColor=none;" vertex="1" parent="1">
          <mxGeometry x="270" y="220" width="210" height="130" as="geometry" />
        </mxCell>
        <mxCell id="mqlqFMtZRtSdyx6AV1RD-20" value="Controller" style="text;align=center;fontStyle=1;verticalAlign=middle;spacingLeft=3;spacingRight=3;strokeColor=none;rotatable=0;points=[[0,0.5],[1,0.5]];portConstraint=eastwest;html=1;" vertex="1" parent="1">
          <mxGeometry x="280" y="230" width="40" height="10" as="geometry" />
        </mxCell>
        <mxCell id="mqlqFMtZRtSdyx6AV1RD-48" style="edgeStyle=orthogonalEdgeStyle;rounded=0;orthogonalLoop=1;jettySize=auto;html=1;entryX=0;entryY=0;entryDx=0;entryDy=50;entryPerimeter=0;" edge="1" parent="1" source="mqlqFMtZRtSdyx6AV1RD-21" target="mqlqFMtZRtSdyx6AV1RD-31">
          <mxGeometry relative="1" as="geometry">
            <Array as="points">
              <mxPoint x="540" y="305" />
              <mxPoint x="540" y="380" />
            </Array>
          </mxGeometry>
        </mxCell>
        <mxCell id="mqlqFMtZRtSdyx6AV1RD-21" value="" style="shape=folder;fontStyle=1;spacingTop=10;tabWidth=80;tabHeight=20;tabPosition=left;html=1;whiteSpace=wrap;fillColor=none;" vertex="1" parent="1">
          <mxGeometry x="310" y="270" width="130" height="70" as="geometry" />
        </mxCell>
        <mxCell id="mqlqFMtZRtSdyx6AV1RD-22" value="&amp;lt;domain&amp;gt;" style="text;align=center;fontStyle=1;verticalAlign=middle;spacingLeft=3;spacingRight=3;strokeColor=none;rotatable=0;points=[[0,0.5],[1,0.5]];portConstraint=eastwest;html=1;" vertex="1" parent="1">
          <mxGeometry x="310" y="270" width="80" height="26" as="geometry" />
        </mxCell>
        <mxCell id="mqlqFMtZRtSdyx6AV1RD-23" value="" style="shape=folder;fontStyle=1;spacingTop=10;tabWidth=130;tabHeight=22;tabPosition=left;html=1;whiteSpace=wrap;fillColor=none;" vertex="1" parent="1">
          <mxGeometry x="560" y="258" width="425" height="362" as="geometry" />
        </mxCell>
        <mxCell id="mqlqFMtZRtSdyx6AV1RD-72" style="edgeStyle=orthogonalEdgeStyle;rounded=0;orthogonalLoop=1;jettySize=auto;html=1;exitX=0.5;exitY=1;exitDx=0;exitDy=0;exitPerimeter=0;entryX=0;entryY=0;entryDx=170;entryDy=72.5;entryPerimeter=0;" edge="1" parent="1" source="mqlqFMtZRtSdyx6AV1RD-24" target="mqlqFMtZRtSdyx6AV1RD-44">
          <mxGeometry relative="1" as="geometry" />
        </mxCell>
        <mxCell id="mqlqFMtZRtSdyx6AV1RD-24" value="" style="shape=folder;fontStyle=1;spacingTop=10;tabWidth=70;tabHeight=20;tabPosition=left;html=1;whiteSpace=wrap;fillColor=none;" vertex="1" parent="1">
          <mxGeometry x="1010" y="370" width="100" height="50" as="geometry" />
        </mxCell>
        <mxCell id="mqlqFMtZRtSdyx6AV1RD-25" value="Repository" style="text;align=center;fontStyle=1;verticalAlign=middle;spacingLeft=3;spacingRight=3;strokeColor=none;rotatable=0;points=[[0,0.5],[1,0.5]];portConstraint=eastwest;html=1;" vertex="1" parent="1">
          <mxGeometry x="1000" y="370" width="80" height="26" as="geometry" />
        </mxCell>
        <mxCell id="mqlqFMtZRtSdyx6AV1RD-65" style="edgeStyle=orthogonalEdgeStyle;rounded=0;orthogonalLoop=1;jettySize=auto;html=1;exitX=0;exitY=0;exitDx=195;exitDy=105;exitPerimeter=0;entryX=-0.007;entryY=0.5;entryDx=0;entryDy=0;entryPerimeter=0;" edge="1" parent="1" source="mqlqFMtZRtSdyx6AV1RD-26" target="mqlqFMtZRtSdyx6AV1RD-32">
          <mxGeometry relative="1" as="geometry" />
        </mxCell>
        <mxCell id="mqlqFMtZRtSdyx6AV1RD-26" value="" style="shape=folder;fontStyle=1;spacingTop=10;tabWidth=95;tabHeight=20;tabPosition=left;html=1;whiteSpace=wrap;fillColor=none;" vertex="1" parent="1">
          <mxGeometry x="575" y="300" width="195" height="190" as="geometry" />
        </mxCell>
        <mxCell id="mqlqFMtZRtSdyx6AV1RD-27" value="" style="shape=folder;fontStyle=1;spacingTop=10;tabWidth=90;tabHeight=20;tabPosition=left;html=1;whiteSpace=wrap;fillColor=none;" vertex="1" parent="1">
          <mxGeometry x="800" y="300" width="170" height="190" as="geometry" />
        </mxCell>
        <mxCell id="mqlqFMtZRtSdyx6AV1RD-28" value="Service" style="text;align=center;fontStyle=1;verticalAlign=middle;spacingLeft=3;spacingRight=3;strokeColor=none;rotatable=0;points=[[0,0.5],[1,0.5]];portConstraint=eastwest;html=1;" vertex="1" parent="1">
          <mxGeometry x="565" y="258" width="80" height="26" as="geometry" />
        </mxCell>
        <mxCell id="mqlqFMtZRtSdyx6AV1RD-29" value="Facade" style="text;align=center;fontStyle=1;verticalAlign=middle;spacingLeft=3;spacingRight=3;strokeColor=none;rotatable=0;points=[[0,0.5],[1,0.5]];portConstraint=eastwest;html=1;" vertex="1" parent="1">
          <mxGeometry x="590" y="300" width="80" height="26" as="geometry" />
        </mxCell>
        <mxCell id="mqlqFMtZRtSdyx6AV1RD-30" value="Use Case" style="text;align=center;fontStyle=1;verticalAlign=middle;spacingLeft=3;spacingRight=3;strokeColor=none;rotatable=0;points=[[0,0.5],[1,0.5]];portConstraint=eastwest;html=1;" vertex="1" parent="1">
          <mxGeometry x="800" y="300" width="80" height="26" as="geometry" />
        </mxCell>
        <mxCell id="mqlqFMtZRtSdyx6AV1RD-61" style="edgeStyle=orthogonalEdgeStyle;rounded=0;orthogonalLoop=1;jettySize=auto;html=1;exitX=0.25;exitY=1;exitDx=0;exitDy=0;exitPerimeter=0;entryX=0;entryY=0;entryDx=150;entryDy=72.5;entryPerimeter=0;" edge="1" parent="1" source="mqlqFMtZRtSdyx6AV1RD-31" target="mqlqFMtZRtSdyx6AV1RD-42">
          <mxGeometry relative="1" as="geometry" />
        </mxCell>
        <mxCell id="mqlqFMtZRtSdyx6AV1RD-31" value="" style="shape=folder;fontStyle=1;spacingTop=10;tabWidth=80;tabHeight=20;tabPosition=left;html=1;whiteSpace=wrap;fillColor=none;" vertex="1" parent="1">
          <mxGeometry x="590" y="330" width="170" height="140" as="geometry" />
        </mxCell>
        <mxCell id="mqlqFMtZRtSdyx6AV1RD-32" value="" style="shape=folder;fontStyle=1;spacingTop=10;tabWidth=99;tabHeight=20;tabPosition=left;html=1;whiteSpace=wrap;fillColor=none;" vertex="1" parent="1">
          <mxGeometry x="811" y="330" width="149" height="140" as="geometry" />
        </mxCell>
        <mxCell id="mqlqFMtZRtSdyx6AV1RD-33" value="Domain" style="text;align=center;fontStyle=1;verticalAlign=middle;spacingLeft=3;spacingRight=3;strokeColor=none;rotatable=0;points=[[0,0.5],[1,0.5]];portConstraint=eastwest;html=1;" vertex="1" parent="1">
          <mxGeometry x="590" y="330" width="80" height="26" as="geometry" />
        </mxCell>
        <mxCell id="mqlqFMtZRtSdyx6AV1RD-34" value="Domain" style="text;align=center;fontStyle=1;verticalAlign=middle;spacingLeft=3;spacingRight=3;strokeColor=none;rotatable=0;points=[[0,0.5],[1,0.5]];portConstraint=eastwest;html=1;" vertex="1" parent="1">
          <mxGeometry x="830" y="330" width="80" height="26" as="geometry" />
        </mxCell>
        <mxCell id="mqlqFMtZRtSdyx6AV1RD-58" style="edgeStyle=orthogonalEdgeStyle;rounded=0;orthogonalLoop=1;jettySize=auto;html=1;exitX=0;exitY=0;exitDx=0;exitDy=55;exitPerimeter=0;entryX=0;entryY=0;entryDx=150;entryDy=20;entryPerimeter=0;" edge="1" parent="1" source="mqlqFMtZRtSdyx6AV1RD-35" target="mqlqFMtZRtSdyx6AV1RD-42">
          <mxGeometry relative="1" as="geometry" />
        </mxCell>
        <mxCell id="mqlqFMtZRtSdyx6AV1RD-60" style="edgeStyle=orthogonalEdgeStyle;rounded=0;orthogonalLoop=1;jettySize=auto;html=1;exitX=0.5;exitY=1;exitDx=0;exitDy=0;exitPerimeter=0;entryX=0;entryY=0;entryDx=0;entryDy=52.5;entryPerimeter=0;" edge="1" parent="1" source="mqlqFMtZRtSdyx6AV1RD-35" target="mqlqFMtZRtSdyx6AV1RD-40">
          <mxGeometry relative="1" as="geometry" />
        </mxCell>
        <mxCell id="mqlqFMtZRtSdyx6AV1RD-64" style="edgeStyle=orthogonalEdgeStyle;rounded=0;orthogonalLoop=1;jettySize=auto;html=1;exitX=0;exitY=0;exitDx=130;exitDy=55;exitPerimeter=0;entryX=0.999;entryY=0.705;entryDx=0;entryDy=0;entryPerimeter=0;" edge="1" parent="1" source="mqlqFMtZRtSdyx6AV1RD-35" target="mqlqFMtZRtSdyx6AV1RD-31">
          <mxGeometry relative="1" as="geometry" />
        </mxCell>
        <mxCell id="mqlqFMtZRtSdyx6AV1RD-35" value="" style="shape=folder;fontStyle=1;spacingTop=10;tabWidth=110;tabHeight=20;tabPosition=left;html=1;whiteSpace=wrap;fillColor=none;" vertex="1" parent="1">
          <mxGeometry x="600" y="360" width="130" height="70" as="geometry" />
        </mxCell>
        <mxCell id="mqlqFMtZRtSdyx6AV1RD-36" value="Implementation" style="text;align=center;fontStyle=1;verticalAlign=middle;spacingLeft=3;spacingRight=3;strokeColor=none;rotatable=0;points=[[0,0.5],[1,0.5]];portConstraint=eastwest;html=1;" vertex="1" parent="1">
          <mxGeometry x="620" y="360" width="80" height="26" as="geometry" />
        </mxCell>
        <mxCell id="mqlqFMtZRtSdyx6AV1RD-67" style="edgeStyle=orthogonalEdgeStyle;rounded=0;orthogonalLoop=1;jettySize=auto;html=1;exitX=0.5;exitY=1;exitDx=0;exitDy=0;exitPerimeter=0;" edge="1" parent="1" source="mqlqFMtZRtSdyx6AV1RD-37" target="mqlqFMtZRtSdyx6AV1RD-32">
          <mxGeometry relative="1" as="geometry" />
        </mxCell>
        <mxCell id="mqlqFMtZRtSdyx6AV1RD-68" style="edgeStyle=orthogonalEdgeStyle;rounded=0;orthogonalLoop=1;jettySize=auto;html=1;exitX=0.25;exitY=1;exitDx=0;exitDy=0;exitPerimeter=0;entryX=0;entryY=0;entryDx=170;entryDy=40;entryPerimeter=0;" edge="1" parent="1" source="mqlqFMtZRtSdyx6AV1RD-37" target="mqlqFMtZRtSdyx6AV1RD-40">
          <mxGeometry relative="1" as="geometry" />
        </mxCell>
        <mxCell id="mqlqFMtZRtSdyx6AV1RD-69" style="edgeStyle=orthogonalEdgeStyle;rounded=0;orthogonalLoop=1;jettySize=auto;html=1;exitX=0.75;exitY=1;exitDx=0;exitDy=0;exitPerimeter=0;entryX=0;entryY=0;entryDx=170;entryDy=37.5;entryPerimeter=0;" edge="1" parent="1" source="mqlqFMtZRtSdyx6AV1RD-37" target="mqlqFMtZRtSdyx6AV1RD-44">
          <mxGeometry relative="1" as="geometry" />
        </mxCell>
        <mxCell id="mqlqFMtZRtSdyx6AV1RD-70" style="edgeStyle=orthogonalEdgeStyle;rounded=0;orthogonalLoop=1;jettySize=auto;html=1;exitX=0;exitY=0;exitDx=119.5;exitDy=35;exitPerimeter=0;entryX=0;entryY=0;entryDx=0;entryDy=35;entryPerimeter=0;" edge="1" parent="1" source="mqlqFMtZRtSdyx6AV1RD-37" target="mqlqFMtZRtSdyx6AV1RD-24">
          <mxGeometry relative="1" as="geometry" />
        </mxCell>
        <mxCell id="mqlqFMtZRtSdyx6AV1RD-37" value="" style="shape=folder;fontStyle=1;spacingTop=10;tabWidth=110;tabHeight=20;tabPosition=left;html=1;whiteSpace=wrap;fillColor=none;" vertex="1" parent="1">
          <mxGeometry x="820.5" y="370" width="119.5" height="50" as="geometry" />
        </mxCell>
        <mxCell id="mqlqFMtZRtSdyx6AV1RD-38" value="Implementation" style="text;align=center;fontStyle=1;verticalAlign=middle;spacingLeft=3;spacingRight=3;strokeColor=none;rotatable=0;points=[[0,0.5],[1,0.5]];portConstraint=eastwest;html=1;" vertex="1" parent="1">
          <mxGeometry x="840" y="367" width="80" height="26" as="geometry" />
        </mxCell>
        <mxCell id="mqlqFMtZRtSdyx6AV1RD-40" value="" style="shape=folder;fontStyle=1;spacingTop=10;tabWidth=110;tabHeight=15;tabPosition=left;html=1;whiteSpace=wrap;fillColor=none;" vertex="1" parent="1">
          <mxGeometry x="680" y="535" width="170" height="65" as="geometry" />
        </mxCell>
        <mxCell id="mqlqFMtZRtSdyx6AV1RD-41" value="Domain" style="text;align=center;fontStyle=1;verticalAlign=middle;spacingLeft=3;spacingRight=3;strokeColor=none;rotatable=0;points=[[0,0.5],[1,0.5]];portConstraint=eastwest;html=1;" vertex="1" parent="1">
          <mxGeometry x="690" y="530" width="80" height="26" as="geometry" />
        </mxCell>
        <mxCell id="mqlqFMtZRtSdyx6AV1RD-42" value="" style="shape=folder;fontStyle=1;spacingTop=10;tabWidth=110;tabHeight=20;tabPosition=left;html=1;whiteSpace=wrap;fillColor=none;" vertex="1" parent="1">
          <mxGeometry x="300" y="690" width="150" height="90" as="geometry" />
        </mxCell>
        <mxCell id="mqlqFMtZRtSdyx6AV1RD-43" value="DTO" style="text;align=center;fontStyle=1;verticalAlign=middle;spacingLeft=3;spacingRight=3;strokeColor=none;rotatable=0;points=[[0,0.5],[1,0.5]];portConstraint=eastwest;html=1;" vertex="1" parent="1">
          <mxGeometry x="310" y="690" width="80" height="26" as="geometry" />
        </mxCell>
        <mxCell id="mqlqFMtZRtSdyx6AV1RD-44" value="" style="shape=folder;fontStyle=1;spacingTop=10;tabWidth=100;tabHeight=20;tabPosition=left;html=1;whiteSpace=wrap;fillColor=none;" vertex="1" parent="1">
          <mxGeometry x="700" y="690" width="170" height="90" as="geometry" />
        </mxCell>
        <mxCell id="mqlqFMtZRtSdyx6AV1RD-45" value="Entity" style="text;align=center;fontStyle=1;verticalAlign=middle;spacingLeft=3;spacingRight=3;strokeColor=none;rotatable=0;points=[[0,0.5],[1,0.5]];portConstraint=eastwest;html=1;" vertex="1" parent="1">
          <mxGeometry x="710" y="690" width="80" height="26" as="geometry" />
        </mxCell>
        <mxCell id="mqlqFMtZRtSdyx6AV1RD-53" value="" style="endArrow=classic;html=1;rounded=0;exitX=0.5;exitY=1;exitDx=0;exitDy=0;exitPerimeter=0;" edge="1" parent="1" source="mqlqFMtZRtSdyx6AV1RD-21" target="mqlqFMtZRtSdyx6AV1RD-42">
          <mxGeometry width="50" height="50" relative="1" as="geometry">
            <mxPoint x="290" y="520" as="sourcePoint" />
            <mxPoint x="340" y="470" as="targetPoint" />
          </mxGeometry>
        </mxCell>
        <mxCell id="a-t5QH0BzqJ5wmtqSvi4-1" value="&lt;h1&gt;Diagrama de paquete Apipet&lt;/h1&gt;&lt;p style=&quot;font-size: 16px;&quot;&gt;El diagrama de paquetes es importante en la etapa de desarrollo porque ayuda a organizar y a estructurar el sistema, para de esta manera poder visualizar las dependencias entre los componentes, gestionar la complejidad de la comunicaciÃ³n entre los paquetes, en este caso el cambio de Entity, DTO y JSON para de esta manera facilitar la comuniaciÃ³n de los mismos y la colaboraciÃ³n entre ellos, de igual manera proporciona una vista a alto nivel de la arquitectura que se quiere implementar y de la estructura del sistema, lo que ayuda a comprender, diseÃ±ar y mantener el software de manera eficiente&lt;/p&gt;" style="text;html=1;strokeColor=none;fillColor=none;spacing=5;spacingTop=-20;whiteSpace=wrap;overflow=hidden;rounded=0;" vertex="1" parent="1">
          <mxGeometry x="30" y="970" width="1030" height="170" as="geometry" />
        </mxCell>
      </root>
    </mxGraphModel>
  </diagram>
</mxfile>
